Patient4_TMGait_0pt6_02_left_08_EMG.mot
version=1
nRows=23
nColumns=33
inDegrees=no
endheader
time	1LAddLong	2LGlutMax	3LGlutMed	4LIliopsoas	5LSemiMemb	6LBicFemLong	7LRecFem	8LVastMed	9LVastLat	10LGasMed	11LTibAnt	12lTibPost	13LPeroneusLong	14LSol	15LExtDigLong	16LFlexDigLong	17RAddLong	18RGlutMax	19RGlutMed	20RIliopsoas	21RSemiMemb	22RBicFemLong	23RRecFem	24RVastMed	25RVastLat	26RGasMed	27RTibAnt	28RTibPost	29RPeroneusLong	30RSol	31RExtDigLong	32RFlexDigLong
11.023	0.015411	-0.55527	-0.093994	0.016174	0.008545	-0.017395	-0.11704	-0.000153	0.017395	-0.033569	-0.11505	0.002289	-0.065765	-0.11948	-0.20615	0.009003	-0.003357	-0.097656	-0.28748	-0.050964	0.066223	-0.028229	0.16937	0.093384	0.078735	0.018921	0.11017	0.013428	-0.023193	-0.47134	0.004272	-0.007324
11.024	0.020294	-0.53543	-0.099335	0.0177	0.03006	-0.018005	-0.11002	-0.001984	0.009766	-0.030518	0.05127	0.001831	-0.025635	-0.15121	-0.10162	0.009613	0.02533	-0.11871	-0.13443	0.030518	-0.039063	-0.061951	0.24506	-0.003815	-0.31479	0.015564	-0.38818	0.00351	0.067596	-0.19012	0.003357	0.003815
11.025	0.017395	-0.55267	-0.12863	0.025024	0.034485	-0.017548	-0.10727	0.002441	0.01236	-0.028381	0.065002	-0.003204	-0.006561	-0.18784	-0.021362	0.020905	0.042725	-0.06546	-0.31616	0.031738	-0.028229	0.029297	0.38162	-0.067749	-0.70465	0.039063	-0.58273	-0.002289	0.29419	0.015869	0.003052	0.00061
11.026	0.019684	-0.5484	-0.11551	0.034027	0.009766	0.023956	-0.13046	-0.001831	0.00885	-0.02594	0.05249	-0.002594	-0.010376	-0.19928	0.05722	0.020294	0.034027	-0.081024	-0.33188	0.020752	0.018921	0.13916	0.085907	-0.10132	-0.59586	0.069122	-0.32074	-0.002441	0.39887	0.008087	0.011749	-0.010223
11.027	0.012665	-0.53757	-0.082397	-0.004425	0.010986	0.050659	-0.13687	0.002747	0.018311	-0.032654	0.024109	0.002899	-0.027161	-0.1564	0.10895	0.012054	0.018311	-0.044403	-0.36926	0.016174	-0.047302	0.1561	-0.10971	0.004578	-0.14954	-0.004425	-0.17639	-0.00824	0.38391	-0.097504	0.005035	-0.005493
11.028	0.003204	-0.53528	-0.036621	-0.006409	-0.002594	0.071259	-0.1268	0.006561	0.012512	-0.031433	0.006561	0.009308	-0.028839	-0.097656	0.10651	0.021667	0.014648	-0.064087	-0.85129	0.010834	0.16174	-0.001526	-0.027313	0.10315	-0.066376	-0.001221	-0.37003	-0.01358	0.24033	-0.024567	0.00473	-0.016022
11.029	0.005646	-0.513	-0.025635	-0.015717	-0.002594	0.037384	-0.1329	0.007019	0.012054	-0.015869	0.011902	0.001984	-0.034485	-0.076141	0.080872	0.020142	0.018311	-0.12085	-0.62912	-0.031891	-0.089569	0.013123	0.014801	0.093079	-0.082703	-0.006866	-0.5986	-0.01358	0.14664	0.064087	0.004272	-0.019836
11.03	0.004578	-0.52704	-0.07782	0.01236	0.017853	0.023956	-0.13733	0.007629	0.010071	-0.014496	0.029755	-0.002899	-0.043793	-0.072021	0.057526	0.018616	-0.006256	-0.11765	-0.21851	-0.060577	-0.19211	0.011749	-0.14038	0.097504	0.12421	-0.012512	-0.20645	-0.014496	-0.032043	0.040588	0.004272	-0.024261
11.031	-0.003052	-0.53482	-0.10498	-0.005341	0.014191	0.032196	-0.13031	0.002747	0.005188	-0.018921	0.006104	0.000916	-0.051117	-0.061493	0.049133	0.015564	0.009308	-0.10284	-0.32486	-0.049591	0.027924	-0.039063	-0.20554	0.062408	0.12543	0.007477	-0.014954	-0.018921	-0.054016	0.073853	0.003967	-0.014343
11.032	-0.004578	-0.50095	-0.11566	-0.007782	0.002747	0.04715	-0.13596	-0.001984	0.005493	-0.016327	-0.007019	-0.012817	-0.079193	-0.079651	0.046387	0.011139	0.023193	-0.097809	-0.43976	-0.027161	0.16251	-0.13794	-0.24048	-0.053406	-0.043945	-0.00061	0.17883	-0.015106	-0.036163	0.12497	0.006409	-0.014191
11.033	-0.002747	-0.47318	-0.064087	-0.010223	-0.022125	0.04425	-0.14069	0.00061	-0.00824	-0.016785	0.026398	-0.003967	-0.092316	-0.096741	0.048828	0.022278	0.050201	-0.017853	-0.2359	-0.024414	0.17059	-0.16541	-0.20004	-0.18082	-0.055847	-0.024719	0.36057	-0.004578	0.062714	0.05127	0.006409	-0.016022
11.034	-0.002136	-0.45364	0.052795	-0.002289	-0.048065	-0.022888	-0.12329	-0.000153	0.002289	-0.026703	0.024261	0.006866	-0.072021	-0.090637	0.046082	0.012817	0.02243	-0.037231	0.44281	-0.049896	-0.054779	-0.13855	-0.13245	-0.088196	0.009766	-0.025482	0.30914	-0.001984	0.074768	-0.16968	0.003662	-0.017242
11.035	-0.003204	-0.47882	0.011902	0.003204	-0.032349	-0.018005	-0.13351	0	-0.002136	-0.046234	0.016174	0.000458	-0.06546	-0.10834	0.036774	0.009918	0.014954	-0.14557	-0.38071	-0.12833	-0.22507	-0.042572	-0.28717	-0.063019	0.093994	-0.019989	0.28229	-0.017395	-0.003357	-0.24475	0.000916	-0.0177
11.036	-0.005951	-0.47195	-0.039368	0.010529	0.009613	0.010986	-0.12558	0.000763	0.000153	-0.029907	0.035095	-0.002594	-0.072327	-0.088501	0.029602	0.020905	-0.042114	-0.13321	-0.42908	-0.1265	-0.084839	0.041199	-0.30212	-0.027008	0.22232	-0.0383	0.3067	-0.016632	0.034485	-0.3215	0.002747	-0.013733
11.037	0.008392	-0.42938	-0.048828	0.02121	0.034332	0.018616	-0.14694	-0.005951	0.01358	-0.036621	0.001984	-0.005493	-0.052795	-0.11353	0.026855	0.019226	-0.050812	-0.02182	0.42191	-0.042572	-0.19241	0.082855	-0.18967	0.00824	0.31036	-0.017853	0.082092	-0.034943	0.059052	-0.18768	-0.002289	-0.009155
11.038	0.016174	-0.38315	-0.045624	0.014038	-0.023956	0.031281	-0.14008	0.000153	0.008392	-0.030212	0.006409	0.000153	-0.056763	-0.1648	0.017242	0.010681	-0.040894	-0.074005	-0.00824	0.092926	-0.10178	0.052338	-0.13062	0.022278	0.28519	-0.004425	-0.39063	-0.039368	0.1088	-0.054169	0.004578	-0.011902
11.039	0.012054	-0.42038	-0.035248	0.018768	-0.09903	0.025482	-0.15152	-0.001831	0.002594	-0.027618	-0.009918	-0.003815	-0.051727	-0.17975	0.008392	0.010681	-0.046387	-0.088654	-0.49423	0.059967	0.13382	-0.019226	-0.10513	0.063934	0.25803	0.016479	-0.57342	0.037384	0.20004	-0.30609	0.001831	-0.014801
11.04	0.016937	-0.38361	-0.022278	0.010376	-0.061646	-0.010223	-0.13138	-0.005493	0.007172	-0.028839	-0.012054	-0.003967	-0.048828	-0.13397	0.033112	0.016479	-0.024414	-0.084686	-0.50186	0.026703	0.18494	0.049591	-0.10864	0.079803	0.29739	0.016174	-0.28976	0.012054	0.003052	-0.68329	0.003204	-0.022125
11.041	0.010223	-0.37796	-0.024872	0.023041	0.06546	-0.03479	-0.16342	-0.004272	0.006104	-0.030212	0.014191	-0.004578	-0.047302	-0.14481	0.081787	0.014496	-0.026245	-0.10757	-0.47684	0.067444	0.11581	0.045013	-0.15976	0.14511	0.31082	0.015717	0.049896	-0.072327	-0.063019	-0.5455	0.004883	-0.022888
11.042	0.010834	-0.34302	-0.050354	-0.005646	0.07431	-0.030975	-0.15884	-0.003052	0.00885	-0.022888	0.007172	-0.004425	-0.036774	-0.12116	0.017548	0.007629	-0.016785	-0.074158	-0.31952	0.093079	0.045624	0.016174	-0.13779	-0.039825	-0.21484	0.007324	0.43091	-0.12466	-0.007935	-0.68436	0.002747	-0.022583
11.043	0.000153	-0.33966	-0.072479	0.000458	0.068817	0.008087	-0.14465	0.003662	0.003967	-0.027771	0.005493	-0.010223	-0.03418	-0.095367	-0.032959	0.013275	0.04715	-0.13168	-0.32455	0.081329	0.069885	-0.12054	0.006561	-0.13397	-0.51071	-0.05249	0.8316	0.12268	0.074615	-0.40176	0.005341	-0.024872
11.044	-0.001526	-0.33981	-0.067444	-0.002594	0.041199	0.003967	-0.13489	0.005951	0.007477	-0.040741	0.019531	-0.009766	-0.031281	-0.065918	-0.022125	0.018616	0.065765	-0.1561	-0.30289	0.030212	-0.026245	-0.072174	0.1268	-0.078125	-0.24475	-0.065613	0.66696	-0.072021	0.15778	-0.10498	0.002289	-0.020447
11.045	-0.002594	-0.33402	-0.080109	-0.00946	0.025024	0.004272	-0.13321	0.003357	0.004883	-0.037231	0.010529	-0.007477	-0.025177	-0.070038	-0.007629	0.012512	0.031433	-0.17914	0.38345	0.009308	-0.36835	0.065613	0.16541	-0.068512	-0.15991	-0.034943	0.36713	0.18097	0.13657	-0.27695	0.002136	-0.014496
